<?xml version="1.0" encoding="utf-8"?>
<!-- Generator: Adobe Illustrator 28.0.0, SVG Export Plug-In . SVG Version: 6.00 Build 0)  -->
<svg version="1.1" id="Warstwa_1" xmlns="http://www.w3.org/2000/svg" xmlns:xlink="http://www.w3.org/1999/xlink" x="0px" y="0px"
	 viewBox="0 0 1024 1024" style="enable-background:new 0 0 1024 1024;" xml:space="preserve">
<style type="text/css">
	.st0{fill:#7D1D63;}
	.st1{fill:#FFFFFF;}
	.st2{fill:#951B81;}
	.st3{fill:none;stroke:#FFFFFF;stroke-width:39.5;stroke-miterlimit:10;}
</style>
<rect class="st0" width="1024" height="1024"/>
<g>
	<g>
		<g>
			<path class="st1" d="M323.95,544.64h-60.6L236.3,466.7l-9.85-31.72l-9.44,32.49l-26.63,77.16h-58.08L117,291.87h45.5l6.5,162.06
				l1.68,44.29l12.37-39.45l30.19-89.93h32.5l31.87,95.34l10.27,33.65l0.84-39.45l6.92-166.51h43.82L323.95,544.64z"/>
		</g>
	</g>
	<g>
		<g>
			<path class="st1" d="M907,415.06c0,19.6-2.62,37.39-7.86,53.38c-5.24,15.99-13.42,29.62-24.53,40.9
				c-11.11,11.28-25.34,19.99-42.67,26.11c-17.33,6.13-38.09,9.19-62.27,9.19h-69.61V291.87h81.14c20.97,0,39.31,2.42,55.04,7.25
				s28.83,12.28,39.31,22.34c10.48,10.06,18.35,22.82,23.59,38.29C904.38,375.23,907,393.66,907,415.06z M851.65,418.16
				c0-13.66-1.19-25.85-3.56-36.55c-2.38-10.7-6.4-19.76-12.06-27.17c-5.66-7.41-13.25-13.05-22.75-16.92
				c-9.51-3.87-21.32-5.8-35.43-5.8h-26.21V504.8h22.64c25.3,0,44.52-6.96,57.66-20.89C845.07,469.99,851.65,448.07,851.65,418.16z"
				/>
		</g>
	</g>
	<g>
		<g>
			<g>
				<path class="st1" d="M383.57,544.64V291.87h165.01v40.23H435.98v62.85h134.89v39.26H435.98v70.2h112.59v40.23H383.57z"/>
			</g>
		</g>
		<g>
			<line class="st2" x1="510.69" y1="414.69" x2="625.14" y2="414.69"/>
			<g>
				<line class="st3" x1="510.69" y1="414.69" x2="625.14" y2="414.69"/>
				<g>
					<polygon class="st1" points="548.84,481.66 615.84,414.69 548.84,347.73 605.7,347.73 672.66,414.69 605.7,481.66 					"/>
				</g>
			</g>
		</g>
	</g>
	<g>
		<g>
			<path class="st1" d="M173.47,688.4c5.66-0.7,11.98-1.31,19.05-1.31c13.49,0,23.77,3.39,29.71,9.4
				c5.28,5.31,7.64,11.57,7.64,19.14c0,6.7-2.17,14.88-8.77,21.4c-6.13,6-16.88,9.75-31.13,9.75c-5.75,0-11.04-0.09-16.51-0.52
				V688.4z M178.09,742.7c3.02,0.44,7.55,0.52,12.64,0.52c24.15,0,34.43-12.27,34.43-27.49c0.19-14.36-9.81-25.06-33.02-25.06
				c-6.13,0-10.75,0.52-14.06,1.13V742.7z"/>
			<path class="st1" d="M281.76,717.12h-28.3v25.58h31.51v3.57h-36.13v-58.64h34.52v3.57h-29.9v22.36h28.3V717.12z"/>
			<path class="st1" d="M318.26,746.26l-23.21-58.64h4.91l12.55,32.28c3.49,9.05,6.23,15.92,8.21,22.01h0.19
				c2.17-6.18,5.38-13.4,9.15-21.92l14.15-32.37h5l-26.41,58.64H318.26z"/>
			<path class="st1" d="M395.51,717.12h-28.3v25.58h31.51v3.57h-36.13v-58.64h34.52v3.57h-29.9v22.36h28.3V717.12z"/>
			<path class="st1" d="M417.86,687.62h4.62v55.07h31.51v3.57h-36.13V687.62z"/>
			<path class="st1" d="M530.3,716.16c0,20.27-15.66,31.15-32.26,31.15c-18.11,0-31.6-12.44-31.6-29.58
				c0-18.45,14.15-31.15,32.26-31.15C517.38,686.58,530.3,699.28,530.3,716.16z M471.25,717.55c0,13.83,10.28,26.28,26.98,26.28
				c16.79,0,27.26-11.75,27.26-27.32c0-12.7-8.96-26.45-26.98-26.45C480.4,690.06,471.25,703.11,471.25,717.55z"/>
			<path class="st1" d="M549.25,688.23c4.06-0.61,9.24-1.13,15.09-1.13c8.49,0,14.62,1.91,18.39,5.22c3.21,2.78,5.09,6.61,5.09,11.4
				c0,5.13-1.7,9.14-4.91,12.09c-4.34,4.18-11.6,6.35-20,6.35c-3.3,0-6.41-0.09-9.06-0.87v24.97h-4.62V688.23z M553.88,717.55
				c2.64,0.78,6.04,1.04,9.62,1.04c12.64,0,19.71-5.31,19.71-14.36c0-10.09-8.68-13.57-18.96-13.57c-4.81,0-8.49,0.44-10.38,0.78
				V717.55z"/>
			<path class="st1" d="M666.79,718.59c-0.66-8.7-1.51-20.01-1.51-26.28h-0.19c-2.55,6.26-5.47,13.05-9.53,21.92l-14.72,32.02h-3.49
				l-13.77-31.58c-3.96-9.14-6.89-16.1-8.96-22.36h-0.19c-0.28,6.79-0.75,17.49-1.6,27.15l-2.26,26.8h-4.53l5.09-58.64h5.28
				l15.28,34.98c3.21,7.31,5.66,13.4,7.55,18.71h0.19c1.7-4.96,4.25-10.88,7.83-18.62l16.04-35.06h5.47l4.53,58.64h-4.53
				L666.79,718.59z"/>
			<path class="st1" d="M727.72,717.12h-28.3v25.58h31.51v3.57h-36.13v-58.64h34.53v3.57h-29.9v22.36h28.3V717.12z"/>
			<path class="st1" d="M750.07,746.26v-58.64h4.34l28.77,36.11c5.85,7.31,9.62,11.92,12.92,17.14l0.19-0.17
				c-0.66-6.79-0.75-13.75-0.75-22.8v-30.28h4.53v58.64h-4.25l-27.83-34.89c-5.38-6.79-10.28-12.96-13.68-18.18l-0.28,0.17
				c0.47,6.61,0.57,12.88,0.57,21.58v31.32H750.07z"/>
			<path class="st1" d="M837.22,691.19h-23.68v-3.57h51.98v3.57h-23.68v55.07h-4.62V691.19z"/>
		</g>
	</g>
	<g>
		<g>
			<path class="st1" d="M164.03,673.54l-18.44-94.36h16.78l6.61,41.16c1.78,11.27,2.98,22,4.26,33.54h0.43
				c1.39-11.78,3.64-22.02,5.94-33.67l8.27-41.04h13.33l7.97,40.49c2.06,10.84,4.04,21.44,5.38,34.21h0.37
				c1.45-12.91,2.98-23.11,4.56-33.91l6.56-40.8h15.85l-18.85,94.36h-16.48l-7.74-37.63c-1.84-9.35-3.54-20-4.84-31.02h-0.3
				c-1.65,11.1-3.38,21.43-5.62,31.26l-8.34,37.39H164.03z"/>
			<path class="st1" d="M324.36,630.55h-24.34v30.03h27.59v12.97h-43.79v-94.36h41.99v12.97h-25.79v25.9h24.34V630.55z"/>
			<path class="st1" d="M411.78,630.55h-24.34v30.03h27.59v12.97h-43.79v-94.36h41.99v12.97h-25.79v25.9h24.34V630.55z"/>
			<path class="st1" d="M458.67,579.18h16.11v43.55h0.39c1.96-4,3.71-7.96,5.58-11.88l16.07-31.67h17.89l-23.9,40.72l24.38,53.64
				h-17.67l-17.59-41.93l-5.14,8.29v33.64h-16.11V579.18z"/>
			<path class="st1" d="M582,630.34v10.98h-31.52v-10.98H582z"/>
			<path class="st1" d="M666.48,630.55h-24.34v30.03h27.59v12.97h-43.79v-94.36h41.99v12.97h-25.79v25.9h24.34V630.55z"/>
			<path class="st1" d="M713.37,673.54v-94.36h14.99l17.1,40.27c3.63,8.55,8.75,20.82,11.91,29.91h0.3
				c-0.8-12.1-1.75-26.64-1.75-43.52v-26.66h14.34v94.36h-14.99l-17.28-40.17c-3.78-8.67-8.29-20.04-11.22-30h-0.3
				c0.72,10.9,1.23,24.28,1.23,43.79v26.38H713.37z"/>
			<path class="st1" d="M818.55,580.58c4.7-1.16,11.2-1.82,18.17-1.82c11.92,0,20.3,2.64,26.43,7.81
				c8.39,6.86,13.51,19.21,13.51,38.12c0,20.23-5.49,32.94-13.33,39.92c-6.81,6.46-16.78,9.58-29.89,9.58c-5.61,0-11.26-0.46-14.9-1
				V580.58z M834.67,661.59c1.35,0.28,2.91,0.28,3.97,0.28c11.07,0,21.26-8.62,21.26-37.37c0-21.36-6.56-33.71-20.59-33.71
				c-1.61,0-3.26,0.12-4.65,0.48V661.59z"/>
		</g>
	</g>
</g>
</svg>